<svg width="20" height="9" viewBox="0 0 20 9" fill="none" xmlns="http://www.w3.org/2000/svg">
<path d="M19.8841 4.19628L15.4398 0.0943022C15.3163 -0.00725272 15.1813 -0.0267921 15.0347 0.0357254C14.8882 0.098325 14.8147 0.211538 14.8147 0.375692V3.00093H0.370361C0.262285 3.00093 0.173506 3.03603 0.104144 3.10635C0.0348227 3.17662 0 3.26652 0 3.37587V5.62601C0 5.73532 0.0346606 5.82522 0.104103 5.89541C0.173627 5.96569 0.262407 6.00079 0.370321 6.00079H14.8148V8.62599C14.8148 8.78246 14.8884 8.89568 15.0348 8.96579C15.1816 9.02855 15.3166 9.00483 15.44 8.89568L19.8844 4.74658C19.9615 4.6685 20 4.57491 20 4.46543C20 4.36413 19.9613 4.27439 19.8841 4.19628Z" fill="#1B1B1B"/>
</svg>
